<?xml version="1.0" standalone="no"?>
<!DOCTYPE svg PUBLIC "-//W3C//DTD SVG 20010904//EN"
 "http://www.w3.org/TR/2001/REC-SVG-20010904/DTD/svg10.dtd">
<svg version="1.0" xmlns="http://www.w3.org/2000/svg"
 width="303.000000pt" height="303.000000pt" viewBox="0 0 303.000000 303.000000"
 preserveAspectRatio="xMidYMid meet">
<metadata>
Created by potrace 1.14, written by Peter Selinger 2001-2017
</metadata>
<g transform="translate(0.000000,303.000000) scale(0.100000,-0.100000)"
fill="#000000" stroke="none">
<path d="M0 1515 l0 -1515 1515 0 1515 0 0 1515 0 1515 -1515 0 -1515 0 0
-1515z m1955 205 c6 -61 -2 -139 -26 -250 -9 -43 -14 -48 -62 -72 -78 -38
-151 -102 -196 -170 -43 -64 -55 -102 -24 -77 14 13 16 11 11 -12 -7 -37 17
-33 44 8 28 40 34 41 41 5 7 -36 74 -109 107 -117 21 -5 22 -4 7 5 -38 24 36
77 117 83 24 2 31 -3 36 -23 4 -18 0 -30 -15 -43 l-20 -18 22 10 c60 30 123
143 123 223 0 41 12 47 43 23 20 -15 18 -48 -9 -112 -20 -49 0 -40 37 18 25
40 33 62 33 103 1 28 -3 62 -7 74 -8 20 -6 23 10 20 25 -4 28 -42 13 -163 -14
-116 -47 -219 -85 -270 -34 -43 -27 -44 31 -4 45 31 99 105 160 219 45 86 84
145 84 129 0 -8 -7 -24 -15 -35 -13 -19 -55 -155 -55 -178 0 -5 10 0 23 12 13
12 35 22 49 22 19 0 33 10 49 33 l23 32 -24 -20 -23 -20 7 30 c17 75 72 166
121 199 16 11 20 28 23 88 4 64 1 75 -17 92 -21 19 -22 19 -53 -4 -28 -21 -31
-21 -24 -4 4 10 10 33 13 49 7 45 23 73 45 78 35 10 50 -50 49 -192 l-1 -126
-52 -103 c-59 -117 -109 -180 -175 -219 -37 -21 -47 -24 -54 -12 -8 12 -10 12
-19 -1 -5 -8 -10 -20 -10 -26 0 -6 -7 -17 -15 -24 -8 -7 -15 -21 -15 -32 0
-11 -26 -70 -57 -131 -46 -90 -71 -126 -128 -182 -148 -148 -257 -233 -420
-329 -107 -64 -158 -86 -195 -86 -50 0 -182 51 -344 132 -201 101 -294 163
-346 232 -43 57 -220 468 -220 510 0 13 11 33 24 45 l25 23 29 -63 c28 -62 83
-129 105 -129 6 0 -1 12 -15 28 -24 25 -58 108 -58 139 0 8 7 21 15 29 18 18
18 18 65 -133 31 -100 62 -163 80 -163 12 0 13 -3 -5 45 -21 59 -20 69 7 51
12 -9 36 -51 54 -95 18 -44 41 -93 52 -108 11 -15 23 -38 26 -50 11 -36 21
-27 36 30 7 28 22 72 32 97 18 42 178 248 232 299 l26 24 0 -67 c0 -70 19 -87
21 -18 1 20 5 51 10 67 8 30 5 -54 -7 -179 -4 -41 -3 -56 5 -52 6 4 11 14 11
22 0 35 114 186 245 324 148 156 239 308 300 503 l40 125 12 -51 c6 -29 14
-81 18 -117z m270 -85 c14 -83 25 -166 25 -183 0 -29 -3 -32 -29 -32 -17 0
-32 4 -35 9 -4 5 -28 12 -54 16 l-49 6 23 79 c26 90 49 198 60 285 l7 60 13
-44 c8 -24 25 -113 39 -196z m-282 -432 c-3 -8 -13 -13 -22 -11 -23 5 -26 36
-4 40 21 5 33 -9 26 -29z m-1073 -98 c0 -8 -2 -15 -4 -15 -2 0 -6 7 -10 15 -3
8 -1 15 4 15 6 0 10 -7 10 -15z m-280 -161 c26 -57 26 -59 -12 -33 -38 26 -49
40 -42 51 3 4 0 8 -5 8 -6 0 -11 6 -11 14 0 9 8 12 25 8 18 -3 31 -17 45 -48z
m-148 -376 c3 -7 -1 -60 -8 -118 -16 -125 -17 -207 -5 -215 6 -3 8 -14 6 -25
-2 -11 3 -24 11 -28 10 -6 14 -19 12 -38 -3 -25 -8 -30 -46 -37 -24 -5 -45 -7
-47 -5 -1 2 4 82 12 178 18 219 46 341 65 288z m395 -225 c-2 -16 -4 -5 -4 22
0 28 2 40 4 28 2 -13 2 -35 0 -50z m1388 -65 c-3 -18 -23 -66 -43 -105 l-36
-73 -52 0 c-86 0 -88 5 -20 69 114 107 151 141 154 141 2 0 1 -15 -3 -32z
m-1398 -40 c-3 -7 -5 -2 -5 12 0 14 2 19 5 13 2 -7 2 -19 0 -25z"/>
<path d="M1300 681 c0 -19 17 -38 25 -29 7 7 -7 48 -16 48 -5 0 -9 -9 -9 -19z"/>
<path d="M1367 443 c-16 -16 -4 -23 38 -23 48 0 60 14 23 24 -30 8 -53 8 -61
-1z"/>
<path d="M1654 336 c-8 -22 3 -33 18 -18 9 9 9 15 0 24 -9 9 -13 7 -18 -6z"/>
</g>
</svg>
